<?xml version="1.0" encoding="UTF-8" standalone="no"?>
<!-- Created with Inkscape (http://www.inkscape.org/) -->

<svg
   xmlns:dc="http://purl.org/dc/elements/1.1/"
   xmlns:cc="http://creativecommons.org/ns#"
   xmlns:rdf="http://www.w3.org/1999/02/22-rdf-syntax-ns#"
   xmlns:svg="http://www.w3.org/2000/svg"
   xmlns="http://www.w3.org/2000/svg"
   xmlns:xlink="http://www.w3.org/1999/xlink"
   xmlns:sodipodi="http://sodipodi.sourceforge.net/DTD/sodipodi-0.dtd"
   xmlns:inkscape="http://www.inkscape.org/namespaces/inkscape"
   width="300"
   height="50.3279"
   id="svg2197"
   sodipodi:version="0.32"
   inkscape:version="0.48.1 "
   version="1.0"
   sodipodi:docname="BBC_iPlayer_logo.svg"
   inkscape:output_extension="org.inkscape.output.svg.inkscape">
  <defs
     id="defs2199" />
  <sodipodi:namedview
     id="base"
     pagecolor="#ffffff"
     bordercolor="#666666"
     borderopacity="1.0"
     gridtolerance="10000"
     guidetolerance="10"
     objecttolerance="10"
     inkscape:pageopacity="0.0"
     inkscape:pageshadow="2"
     inkscape:zoom="4"
     inkscape:cx="129.43572"
     inkscape:cy="43.595514"
     inkscape:document-units="px"
     inkscape:current-layer="g3271"
     inkscape:window-width="1384"
     inkscape:window-height="1007"
     inkscape:window-x="526"
     inkscape:window-y="-18"
     showgrid="false"
     fit-margin-top="0.5"
     fit-margin-left="0.5"
     fit-margin-right="0.5"
     fit-margin-bottom="0.5"
     inkscape:window-maximized="0" />
  <metadata
     id="metadata2202">
    <rdf:RDF>
      <cc:Work
         rdf:about="">
        <dc:format>image/svg+xml</dc:format>
        <dc:type
           rdf:resource="http://purl.org/dc/dcmitype/StillImage" />
      </cc:Work>
    </rdf:RDF>
  </metadata>
  <g
     inkscape:label="Layer 1"
     inkscape:groupmode="layer"
     id="layer1"
     transform="translate(-239.77742,-3056.8122)">
    <g
       clip-path="url(#id354)"
       id="g11451"
       transform="matrix(1,0,0,-1,2265.8888,1154.038)">
      <text
         transform="scale(1,-1)"
         id="text11453">
        <tspan
           style="font-size:8.5px;letter-spacing:0;fill:#e71e39;fill-rule:nonzero;stroke:none;font-family:font1"
           font-size="8.5"
           letter-spacing="0"
           y="-14.3826"
           x="12.588"
           id="tspan11455">
          <altGlyph
             xlink:href="#id355"
             id="altGlyph11457" />
          <altGlyph
             xlink:href="#id356"
             id="altGlyph11459" />
        </tspan>
      </text>
    </g>
    <g
       clip-path="url(#id357)"
       id="g11461"
       transform="matrix(1,0,0,-1,2265.8888,1154.038)">
      <text
         transform="scale(1,-1)"
         id="text11463">
        <tspan
           style="font-size:8.5px;letter-spacing:0;fill:#e71e39;fill-rule:nonzero;stroke:none;font-family:font1"
           font-size="8.5"
           letter-spacing="0"
           y="-14.3826"
           x="687.58801"
           id="tspan11465">
          <altGlyph
             xlink:href="#id355"
             id="altGlyph11467" />
          <altGlyph
             xlink:href="#id358"
             id="altGlyph11469" />
        </tspan>
      </text>
    </g>
    <g
       id="g3253"
       transform="translate(0,1416)">
      <g
         id="g3271"
         transform="matrix(0.34238796,0,0,0.34238796,158.00932,1111.7853)">
        <g
           id="g3281"
           transform="matrix(0.74937344,0,0,0.74937344,60.219905,423.71933)">
          <path
             inkscape:connector-curvature="0"
             id="path3255"
             d="m 1255.8947,1578.043 c 1.0721,-12.1616 7.091,-22.0792 20.2806,-22.0792 14.6057,0 20.2383,9.9176 20.2383,22.0792 z m -182.8518,40.9604 c -8.4961,0 -14.9939,-4.2514 -14.9939,-11.5579 0,-10.1385 9.7402,-13.9931 22.098,-13.9931 5.4847,0 10.7512,0.4362 15.4022,0.6248 0,12.3559 -8.6919,24.9474 -22.5063,24.9474 m -141.70178,-50.4217 -9.79103,0 0,-43.0788 9.79103,0 c 13.01033,0 23.43432,6.8627 23.43432,21.337 0,14.8723 -10.42399,21.7418 -23.43432,21.7418 m 297.68438,-14.5132 7.3703,-18.7842 -36.4631,0 -21.6727,68.9176 -0.7764,0 -22.6949,-68.9176 -39.3284,0 5.1483,12.9903 -0.7394,0.1848 c -9.2115,-11.092 -24.5067,-15.5866 -41.2418,-15.5866 -15.6168,0 -23.8338,1.9343 -37.5205,5.7439 0,0 -8.1541,24.5733 -8.5257,25.6312 -0.7764,1.1831 0.9613,2.4082 1.9743,1.8283 9.3816,-4.483 21.1643,-8.8704 36.1508,-8.8704 13.1767,0 23.9223,3.8363 24.1349,18.2332 -4.664,-0.843 -11.1616,-1.4326 -17.016,-1.4326 -15.4856,0 -40.8166,2.4608 -50.542,19.6865 l -0.7949,-0.037 0,-95.2912 -36.47478,0 0,33.6012 -0.7764,0.011 c -5.97316,-21.9324 -25.9545,-33.6116 -61.71721,-33.6116 l -45.26147,0 -0.18487,37.8407 -36.16368,-32.5057 c -4.35248,-3.6528 -8.46059,-5.3233 -15.51332,-5.3233 l -14.33188,0 c -6.40516,0 -11.53776,5.4195 -11.53776,12.0886 l 0,22.2838 35.53201,0 0,-10.0359 c 0,-3.3389 3.97133,-5.0753 6.47023,-2.5812 l 50.99173,45.6149 c 2.30702,2.307 2.69153,4.8738 0.29947,7.439 l -51.19082,46.073 c -2.81058,2.1506 -6.46838,0.4769 -6.46838,-2.6572 l 0,-67.0901 -35.5309,0 0,79.6588 c 0,5.7047 4.94015,11.6933 11.73961,11.6933 l 14.13244,0 c 7.05456,0 11.08984,-1.6545 15.64605,-5.1183 l 36.03888,-32.5682 0,37.6919 37.91133,0 0,-45.4025 14.67777,0 c 29.27768,0 48.63513,-13.1691 54.52529,-33.9047 l 0.70245,0.01 0,79.2989 36.46391,0 0,-14.6912 0.7949,-0.011 c 6.5698,11.5051 20.4582,16.7438 35.5351,17.1405 18.4452,0.4862 28.3867,-8.5748 32.228,-11.0145 1.0537,-0.7561 1.7192,-0.867 1.8117,0.1848 0.4436,2.9576 0.9612,6.1392 0.9612,8.424 l 33.4463,0 c -1.5898,-8.3025 -2.0409,-16.6133 -2.0409,-24.9245 l 0,-39.3222 c 0,-2.2258 -0.2772,-4.3193 -0.7394,-6.33 l 0.7579,-0.1849 28.9821,73.1747 c 0,0 -4.8433,16.3111 -19.9628,16.3111 -6.2187,0 -10.2301,-0.8855 -15.9291,-3.6262 -0.9797,-0.3919 -1.7746,0.1109 -2.0963,1.0408 l -8.8085,26.7418 c 5.2592,2.6333 18.3304,6.8346 32.3963,6.8346 30.7584,0 44.3473,-33.73 53.5013,-56.996 l 22.0666,-56.0201 0.7579,0.1848 c -0.8873,3.2685 -0.9798,6.6789 -0.9798,10.2465 0,34.8804 26.54,55.341 61.417,55.341 10.537,0 22.3215,-1.8878 31.1596,-5.294 0,0 7.3925,-21.9413 8.9397,-26.5767 0.9058,-1.6009 -1.0167,-2.4076 -2.0315,-1.8518 -9.0563,5.035 -19.5377,9.4071 -31.5885,9.4071 -17.8444,0 -28.9874,-5.6974 -31.0135,-20.2717 l 70.6008,0 0,42.1486 36.4945,0 0,-44.585 c 0,-23.0978 12.354,-33.0361 26.6583,-33.0361 3.516,0 6.1835,1.0629 6.1835,1.0629 l 9.5126,-28.6512 c 0.4622,-0.8614 -0.3142,-1.721 -1.0537,-1.8892 -3.2736,-0.4825 -7.0577,-0.9447 -10.692,-0.9447 -15.7832,0 -27.0963,8.512 -33.3557,21.9016 l -0.7948,0 0,-19.471 -33.2245,0 0,34.6628 -0.7764,-0.037 c -5.7398,-21.2474 -21.0147,-37.0778 -50.5234,-37.0778 -20.0478,0 -36.6536,7.5656 -46.5897,21.3684 z"
             style="fill:#ff008e;fill-opacity:1;fill-rule:nonzero;stroke:none" />
          <g
             transform="matrix(1.6719758,0,0,1.6719758,194.06702,-76.94411)"
             id="g3257"
             inkscape:label="Layer 1"
             style="fill:#000000">
            <g
               style="fill:#000000"
               transform="matrix(0.82302261,0,0,-0.82302261,189.63913,997.27701)"
               id="g3259">
              <path
                 inkscape:connector-curvature="0"
                 d="m 0,0 c 0,-11.25 -14,-10.583 -14,-10.583 l -14,0 0,20.333 14,0 C 0.417,9.833 0,0 0,0 m -28,40.75 10.667,0 c 11.083,-0.584 10.666,-8.833 10.666,-8.833 0,-10.25 -12.25,-10.417 -12.25,-10.417 l -9.083,0 0,19.25 z M -2.583,17.5 c 0,0 9.583,4.083 9.5,14.917 0,0 1.457,17.749 -22.063,19.916 l -26.104,0 0,-74.416 29.917,0 c 0,0 25,-0.084 25,21 0,0 0.583,14.333 -16.25,18.583 m -67.545,49.4156 109.878,0 0,-103.544 -109.878,0 0,103.544 z"
                 style="fill:#EAEAEA;fill-rule:nonzero;stroke:none"
                 id="path3261" />
            </g>
            <g
               style="fill:#000000"
               id="g3263"
               transform="matrix(0.82302261,0,0,-0.82302261,85.355129,997.27701)">
              <path
                 id="path3265"
                 style="fill:#EAEAEA;fill-rule:nonzero;stroke:none"
                 d="m 0,0 c 0,-11.25 -14,-10.583 -14,-10.583 l -14,0 0,20.333 14,0 C 0.417,9.833 0,0 0,0 m -28,40.75 10.667,0 c 11.083,-0.584 10.666,-8.833 10.666,-8.833 0,-10.25 -12.25,-10.417 -12.25,-10.417 l -9.083,0 0,19.25 z M -2.583,17.5 c 0,0 9.583,4.083 9.5,14.917 0,0 1.457,17.749 -22.063,19.916 l -26.104,0 0,-74.416 29.917,0 c 0,0 25,-0.084 25,21 0,0 0.583,14.333 -16.25,18.583 m -67.545,49.4156 109.878,0 0,-103.544 -109.878,0 0,103.544 z"
                 inkscape:connector-curvature="0" />
            </g>
            <g
               style="fill:#000000"
               id="g3267"
               transform="matrix(0.82302261,0,0,-0.82302261,308.1885,958.5961)">
              <path
                 id="path3269"
                 style="fill:#EAEAEA;fill-rule:nonzero;stroke:none"
                 d="m 0,0 0,-13.75 c 0,0 -13.417,8.25 -28.25,8.417 0,0 -27.666,0.54 -28.916,-26.522 0,0 -1,-24.895 28.583,-26.312 0,0 12.417,-1.5 29.25,9.25 l 0,-14.25 c 0,0 -22.583,-13.416 -48.75,-3.083 0,0 -22,8.04 -22.834,34.395 0,0 -0.917,27.105 28.417,36.105 0,0 7.834,3 21.917,1.667 0,0 8.416,-0.834 20.583,-5.917 m -87.461,-83.627 109.878,0 0,103.544 -109.878,0 0,-103.544 z"
                 inkscape:connector-curvature="0" />
            </g>
          </g>
        </g>
      </g>
    </g>
  </g>
</svg>
